<?xml version="1.0" standalone="no"?>
<!DOCTYPE svg PUBLIC "-//W3C//DTD SVG 20010904//EN"
 "http://www.w3.org/TR/2001/REC-SVG-20010904/DTD/svg10.dtd">
<svg version="1.0" xmlns="http://www.w3.org/2000/svg"
 width="200.000000pt" height="200.000000pt" viewBox="0 0 200.000000 200.000000"
 preserveAspectRatio="xMidYMid meet">
<metadata>
Created by potrace 1.11, written by Peter Selinger 2001-2013
</metadata>
<g transform="translate(0.000000,200.000000) scale(0.100000,-0.100000)"
fill="#000000" stroke="none">
<path d="M625 1645 c-31 -29 -33 -77 -5 -105 20 -20 35 -24 77 -20 12 0 106
-35 210 -79 103 -45 193 -81 199 -81 10 0 61 102 78 156 8 26 -16 54 -45 54
-15 0 -27 -15 -44 -54 l-24 -55 -158 68 c-121 52 -161 74 -173 94 -26 46 -77
56 -115 22z m73 -27 c28 -28 1 -75 -37 -63 -25 8 -34 31 -21 56 12 21 40 25
58 7z"/>
<path d="M1295 1648 c-35 -20 -46 -41 -41 -82 2 -21 0 -46 -5 -55 -20 -36
-149 -351 -149 -364 0 -18 161 -90 182 -82 14 6 27 34 28 58 0 4 -24 19 -54
33 l-55 25 39 92 c89 213 98 230 123 244 53 27 43 112 -16 133 -16 5 -30 10
-31 10 -1 0 -10 -6 -21 -12z m59 -43 c22 -23 2 -64 -31 -65 -6 0 -18 7 -27 15
-12 13 -13 21 -4 40 13 28 39 32 62 10z"/>
<path d="M892 1637 c-6 -6 -13 -24 -17 -38 -6 -24 -2 -28 82 -62 48 -21 93
-37 98 -37 14 0 37 62 27 71 -6 6 -171 79 -178 79 -1 0 -6 -6 -12 -13z"/>
<path d="M702 1442 c-7 -5 -14 -22 -15 -38 -2 -26 4 -32 49 -54 l52 -25 -25
-55 c-13 -30 -42 -101 -64 -156 -26 -67 -50 -111 -70 -128 -39 -35 -40 -86 -3
-115 33 -26 62 -26 93 -2 23 17 28 43 20 96 -1 11 33 105 76 208 89 215 90
199 -15 242 -36 15 -69 28 -75 31 -5 2 -16 0 -23 -4z m8 -518 c0 -33 -38 -49
-62 -26 -11 11 -15 25 -12 39 11 43 74 32 74 -13z"/>
<path d="M1294 1343 c-9 -21 -27 -62 -40 -92 -13 -30 -23 -55 -22 -56 10 -9
70 -36 73 -33 2 2 21 45 43 96 l41 92 -29 15 c-42 22 -49 19 -66 -22z"/>
<path d="M671 1323 c-20 -39 -61 -147 -61 -163 0 -10 13 -21 34 -27 l34 -11
36 87 c20 48 36 92 36 99 0 11 -39 32 -60 32 -5 0 -13 -8 -19 -17z"/>
<path d="M877 1147 c-18 -14 -65 -113 -73 -156 -5 -24 -2 -30 17 -37 47 -16
57 -8 78 59 7 20 15 37 18 37 23 0 326 -137 330 -149 9 -24 45 -51 71 -51 32
0 72 43 72 78 0 42 -40 76 -82 70 -23 -4 -55 4 -108 27 -41 18 -122 52 -180
75 -58 24 -110 47 -116 52 -6 4 -18 2 -27 -5z m459 -185 c6 -4 14 -16 18 -28
8 -26 -14 -47 -46 -42 -30 4 -38 46 -12 65 20 15 25 15 40 5z"/>
<path d="M917 988 c-11 -24 -12 -36 -3 -44 12 -11 159 -74 174 -74 10 0 32 44
32 63 0 10 -66 41 -181 85 -5 2 -15 -12 -22 -30z"/>
<path d="M1055 670 c-10 -31 -3 -273 8 -295 14 -28 27 -35 68 -35 32 0 38 4
44 27 5 21 1 31 -18 47 -23 20 -25 27 -25 116 0 173 3 160 -36 160 -26 0 -36
-5 -41 -20z"/>
<path d="M1665 678 c-3 -8 -4 -86 -3 -173 l3 -160 35 0 35 0 3 68 c3 61 5 69
27 79 39 18 54 -3 57 -80 l3 -67 35 0 35 0 3 72 c3 80 -12 124 -51 145 -31 17
-48 19 -79 8 l-27 -9 -3 62 c-3 62 -3 62 -36 65 -20 2 -34 -2 -37 -10z"/>
<path d="M119 668 c-18 -7 -19 -18 -19 -162 0 -183 -13 -168 150 -164 l105 3
0 35 0 35 -88 3 c-84 3 -88 4 -85 25 3 19 9 22 56 23 61 1 75 11 70 50 -3 27
-6 29 -53 31 -27 1 -56 2 -62 2 -14 1 -18 40 -5 42 4 0 39 2 77 3 98 4 95 3
95 35 0 17 -6 33 -12 38 -16 10 -202 10 -229 1z"/>
<path d="M1489 643 c-1 -10 -1 -25 0 -34 1 -9 -9 -23 -22 -32 -22 -14 -25 -27
-18 -69 0 -5 9 -8 19 -8 14 0 17 -10 18 -57 2 -49 6 -61 28 -80 37 -31 93 -32
105 -1 11 30 3 48 -20 48 -23 0 -38 33 -31 67 3 17 11 23 32 23 31 0 42 22 29
58 -6 16 -16 22 -39 22 -19 0 -29 4 -25 10 4 6 4 24 0 40 -6 26 -11 30 -41 30
-25 0 -34 -4 -35 -17z"/>
<path d="M1289 580 c-89 -26 -125 -112 -79 -187 26 -44 65 -61 127 -59 74 3
104 34 68 69 -12 12 -23 13 -50 6 -24 -7 -41 -6 -56 1 -29 16 -21 20 50 23 68
3 81 13 81 60 0 31 -47 87 -73 87 -9 0 -21 2 -29 4 -7 2 -25 1 -39 -4z m56
-81 c9 -14 1 -21 -30 -24 -29 -4 -44 13 -24 26 19 12 46 11 54 -2z"/>
<path d="M394 567 c-2 -7 -3 -60 -2 -118 l3 -104 29 -3 c16 -2 32 0 37 5 4 4
9 36 10 71 4 110 55 111 58 0 2 -74 4 -78 41 -78 33 0 40 14 40 83 0 29 4 58
9 66 10 16 41 8 42 -11 0 -7 2 -38 4 -68 1 -30 3 -58 4 -62 2 -13 58 -9 68 5
8 11 9 35 4 143 -1 40 -42 84 -76 84 -14 0 -37 -7 -50 -16 -22 -14 -26 -14
-47 0 -29 20 -62 20 -79 0 -11 -14 -13 -14 -21 0 -11 19 -67 21 -74 3z"/>
<path d="M845 571 c-29 -12 -54 -43 -65 -79 -25 -89 66 -181 140 -142 13 7 21
7 25 0 10 -17 54 -11 64 8 11 21 9 191 -2 210 -10 14 -53 16 -62 2 -4 -6 -15
-6 -31 0 -30 12 -42 12 -69 1z m79 -93 c13 -21 -2 -51 -26 -56 -22 -4 -48 25
-41 46 13 36 47 40 67 10z"/>
</g>
</svg>
