<svg data-v-fde0c5aa="" xmlns="http://www.w3.org/2000/svg" viewBox="0 0 300 300" class="iconAboveSlogan"><!----><defs data-v-fde0c5aa=""><!----></defs><rect data-v-fde0c5aa="" fill="#1E0935" x="0" y="0" width="300px" height="300px" class="logo-background-square"></rect><defs data-v-fde0c5aa=""><!----></defs><g data-v-fde0c5aa="" id="44912565-7134-429c-82f4-2260ef50bd0f" fill="#CD8B7C" transform="matrix(5.704256500991796,0,0,5.704256500991796,24.05002199330414,153.81010655173557)"><path d="M0.85 6.77L0.85 1.94L5.68 1.94L5.68 3.54L5.68 3.54Q5.68 3.58 5.65 3.58L5.65 3.58L2.78 3.58L2.78 5.70L5.35 5.70L5.35 5.71L5.35 5.71Q5.35 5.81 5.32 6.75L5.32 6.75L5.32 6.75Q5.30 6.75 5.30 6.77L5.30 6.77L5.42 6.77L5.42 7.27L3.19 7.27L3.19 9.28L2.60 9.28L2.60 9.47L3.19 9.47L3.19 10.08L5.71 10.08L5.71 10.32L5.52 10.32L5.52 11.52L2.50 11.52L2.50 11.73L1.07 11.73L1.07 8.22L0.85 8.22L0.85 6.99L-0.71 6.99L-0.71 6.77L0.85 6.77ZM1.67 6.77L0.87 6.77L0.87 6.99L1.67 6.99L1.67 6.77ZM3.34 10.04L3.34 9.59L3.46 9.59L3.46 9.75L3.47 9.75L3.47 9.75Q3.47 9.71 3.62 9.59L3.62 9.59L3.74 9.59L3.58 9.77L3.75 10.04L3.64 10.04L3.64 10.04Q3.51 9.85 3.49 9.85L3.49 9.85L3.49 9.85Q3.46 9.86 3.46 9.88L3.46 9.88L3.46 10.04L3.34 10.04ZM3.92 10.04L3.92 9.59L4.15 9.59L4.15 9.59Q4.26 9.59 4.30 9.72L4.30 9.72L4.30 9.72Q4.30 9.74 4.23 9.84L4.23 9.84L4.23 9.84Q4.28 9.84 4.30 10.04L4.30 10.04L4.22 10.04L4.22 10.04Q4.18 10.04 4.16 9.87L4.16 9.87L4.03 9.87L4.03 10.04L3.92 10.04ZM4.66 9.59L4.66 9.59L4.72 9.59L4.72 9.59Q4.87 9.59 4.91 9.79L4.91 9.79L4.91 9.85L4.91 9.85Q4.91 9.91 4.86 9.97L4.86 9.97L4.86 9.99L4.86 9.99Q4.91 9.99 4.91 10.01L4.91 10.01L4.91 10.01Q4.91 10.04 4.86 10.07L4.86 10.07L4.86 10.07Q4.83 10.07 4.81 10.01L4.81 10.01L4.72 10.04L4.66 10.04L4.66 10.04Q4.50 10.04 4.48 9.79L4.48 9.79L4.48 9.79Q4.53 9.59 4.66 9.59ZM4.59 9.79L4.59 9.79L4.59 9.84L4.59 9.84Q4.59 9.95 4.71 9.95L4.71 9.95L4.72 9.95L4.72 9.93L4.70 9.93L4.70 9.92L4.70 9.92Q4.70 9.89 4.74 9.87L4.74 9.87L4.79 9.90L4.79 9.90Q4.79 9.89 4.81 9.80L4.81 9.80L4.81 9.80Q4.80 9.67 4.68 9.67L4.68 9.67L4.68 9.67Q4.59 9.69 4.59 9.79ZM4.15 9.69L4.03 9.69L4.03 9.79L4.15 9.79L4.15 9.79Q4.18 9.79 4.18 9.75L4.18 9.75L4.18 9.72L4.18 9.72Q4.18 9.69 4.15 9.69L4.15 9.69ZM5.62 10.51L5.62 10.41L5.71 10.41L5.71 10.43L5.71 10.43Q5.71 10.73 5.67 10.73L5.67 10.73L5.67 10.73Q5.62 10.73 5.62 10.51L5.62 10.51ZM5.62 10.84L5.62 10.74L5.71 10.74L5.71 10.84L5.62 10.84ZM6.21 9.38L6.21 1.98L8.39 1.98L8.39 1.98Q8.75 3.29 9.86 7.23L9.86 7.23L10.73 7.23L10.73 7.23Q10.76 7.23 11.01 6.30L11.01 6.30L11.01 6.30Q11.55 4.44 12.22 1.98L12.22 1.98L14.23 1.98L14.23 8.31L14.34 8.31L14.34 9.46L13.73 9.46L13.73 9.67L14.34 9.67L14.34 11.73L12.63 11.73L12.63 10.97L12.84 10.97L12.84 8.63L12.48 8.63L12.48 7.46L12.27 7.46L12.26 7.53L12.07 7.53L12.07 9.19L11.48 9.19L11.48 9.97L10.97 9.97L10.97 11.29L9.77 11.29L9.77 10.45L9.03 10.45L9.03 9.30L8.59 9.30L8.59 8.09L8.33 8.09L8.33 8.09Q8.32 8.00 8.17 7.46L8.17 7.46L9.90 7.46L9.85 7.23L8.12 7.23L8.17 7.46L7.94 7.46L7.94 8.98L8.05 8.98L8.05 10.64L7.63 10.64L7.63 10.94L8.05 10.94L8.05 11.38L6.51 11.38L6.51 9.38L6.21 9.38ZM7.94 6.54L7.92 6.54L7.92 6.66L7.92 6.66Q7.92 6.81 7.94 7.23L7.94 7.23L8.11 7.23L8.11 7.23Q7.94 6.58 7.94 6.54L7.94 6.54ZM12.50 6.56L12.48 6.56L12.34 7.23L12.48 7.23L12.48 7.23Q12.50 6.82 12.50 6.62L12.50 6.62L12.50 6.56ZM7.92 7.23L7.38 7.23L7.38 7.46L7.92 7.46L7.92 7.23ZM12.32 7.23L10.75 7.23L10.71 7.46L12.26 7.46L12.26 7.46Q12.32 7.29 12.32 7.23L12.32 7.23ZM13.69 7.23L12.50 7.23L12.50 7.46L13.69 7.46L13.69 7.23ZM10.67 7.46L9.93 7.46L9.93 7.46Q10.04 7.99 10.08 7.99L10.08 7.99L10.28 7.99L10.28 8.87L10.59 8.87L10.59 7.51L10.67 7.51L10.67 7.46ZM14.34 9.67L14.34 9.46L15.33 9.46L15.33 9.67L14.34 9.67ZM6.06 11.61L6.06 11.46L7.81 11.46L7.81 11.61L6.06 11.61ZM16.53 7.57L18.21 1.96L19.86 1.96L19.86 1.96Q19.89 2.10 21.46 7.29L21.46 7.29L21.76 7.29L21.76 10.51L21.08 10.51L21.08 10.76L21.76 10.76L21.76 11.45L19.94 11.45L19.94 9.47L17.72 9.47L17.72 10.32L16.81 10.32L16.81 11.73L15.16 11.73L15.16 11.63L15.29 11.63L15.29 10.32L15.97 10.32L15.97 7.57L16.53 7.57ZM19.02 4.71L18.98 4.71L18.98 4.72L18.98 4.72Q18.77 5.89 18.16 8.40L18.16 8.40L19.69 8.40L19.69 7.29L19.56 7.29L19.56 7.29Q19.02 4.92 19.02 4.71L19.02 4.71ZM14.68 7.57L14.68 7.28L15.97 7.28L15.97 7.57L14.68 7.57ZM19.94 11.73L19.94 11.57L22.13 11.57L22.13 11.73L19.94 11.73ZM21.85 8.85L21.85 1.91L23.80 1.91L23.80 5.94L23.42 5.94L23.42 10.10L26.33 10.10L26.33 10.97L25.75 10.97L25.75 11.17L26.33 11.17L26.33 11.73L24.45 11.73L24.45 11.58L21.87 11.58L21.87 11.58Q21.85 11.42 21.85 11.33L21.85 11.33L21.85 9.14L22.35 9.14L22.35 8.85L21.85 8.85ZM26.33 11.17L26.33 10.97L27.04 10.97L27.04 11.17L26.33 11.17ZM27.71 6.80L27.71 2.00L32.50 2.00L32.50 3.60L32.50 3.60Q32.50 3.63 32.47 3.63L32.47 3.63L29.63 3.63L29.63 5.74L32.18 5.74L32.18 5.76L32.18 5.76Q32.18 5.84 32.15 6.79L32.15 6.79L32.15 6.79Q32.13 6.79 32.13 6.80L32.13 6.80L32.25 6.80L32.25 7.29L30.04 7.29L30.04 9.29L29.44 9.29L29.44 9.49L30.04 9.49L30.04 10.10L32.54 10.10L32.54 10.32L32.34 10.32L32.34 11.52L29.35 11.52L29.35 11.73L27.92 11.73L27.92 8.24L27.71 8.24L27.71 7.01L26.15 7.01L26.15 6.80L27.71 6.80ZM28.53 6.80L27.73 6.80L27.73 7.01L28.53 7.01L28.53 6.80ZM32.99 3.57L32.99 1.93L38.73 1.93L38.73 3.57L36.83 3.57L36.83 10.34L37.69 10.34L37.69 10.54L36.83 10.54L36.83 11.29L36.32 11.29L36.32 11.55L36.68 11.55L36.68 11.73L34.94 11.73L34.94 11.73Q34.90 11.73 34.90 11.70L34.90 11.70L34.90 3.57L32.99 3.57ZM36.82 10.34L36.16 10.34L36.16 10.54L36.82 10.54L36.82 10.34ZM38.47 6.64L38.47 1.96L40.41 1.96L40.41 5.85L42.36 5.85L42.36 1.96L44.00 1.96L44.00 7.51L43.33 7.51L43.33 7.75L44.00 7.75L44.00 11.73L42.39 11.73L42.39 11.73Q42.36 11.73 42.36 11.70L42.36 11.70L42.36 7.48L40.41 7.48L40.41 11.70L40.41 11.70Q40.41 11.73 40.37 11.73L40.37 11.73L38.75 11.73L38.75 6.64L38.47 6.64ZM44.00 7.75L44.00 7.51L44.87 7.51L44.87 7.75L44.00 7.75Z"></path></g><defs data-v-fde0c5aa=""><!----></defs><g data-v-fde0c5aa="" id="1b26f78d-8c2a-46c4-8889-bf4cfd69a22d" stroke="none" fill="#CD8B7C" transform="matrix(2.598173308897953,0,0,2.598173308897953,108.42922705763276,63.56369107349566)"><path d="M2.83 18.247l26.34-9.124L2.83 0zM29.17 32V13.753L2.83 22.877z"></path></g><defs data-v-fde0c5aa=""><!----></defs><g data-v-fde0c5aa="" id="a2b5ed3c-bd4f-4842-95c3-e0d71cc90822" fill="#CD8B7C" transform="matrix(0.5401961163090149,0,0,0.5401961163090149,52.06244114450178,228.64668088811464)"><path d="M0.81 14.42L1.60 14.42L7.59 3.84L6.80 3.84ZM16.21 14.42L17.00 14.42L22.99 3.84L22.20 3.84ZM47.74 13.78L50.33 13.78C52.40 13.78 53.77 12.88 53.77 11.07C53.77 9.80 52.95 9.04 51.59 8.85L51.59 8.79C52.67 8.53 53.21 7.71 53.21 6.78C53.21 5.21 52.01 4.54 50.13 4.54L47.74 4.54ZM48.59 8.57L48.59 5.21L49.98 5.21C51.56 5.21 52.39 5.68 52.39 6.80C52.39 7.94 51.69 8.57 49.91 8.57ZM48.59 13.10L48.59 9.21L50.16 9.21C51.94 9.21 52.95 9.79 52.95 11.06C52.95 12.47 51.90 13.10 50.16 13.10ZM62.17 13.78L63.01 13.78L64.02 10.71L67.56 10.71L68.56 13.78L69.43 13.78L66.25 4.54L65.35 4.54ZM64.27 10.02L64.79 8.41C65.14 7.34 65.45 6.37 65.77 5.25L65.83 5.25C66.14 6.37 66.44 7.34 66.81 8.41L67.33 10.02ZM78.30 13.78L80.49 13.78C83.27 13.78 84.64 11.97 84.64 9.11C84.64 6.27 83.27 4.54 80.44 4.54L78.30 4.54ZM79.11 13.09L79.11 5.22L80.39 5.22C82.73 5.22 83.79 6.75 83.79 9.11C83.79 11.49 82.73 13.09 80.39 13.09ZM112.71 13.94C113.89 13.94 114.76 13.44 115.47 12.63L114.98 12.11C114.34 12.82 113.67 13.20 112.76 13.20C110.85 13.20 109.65 11.61 109.65 9.13C109.65 6.66 110.85 5.11 112.78 5.11C113.60 5.11 114.25 5.47 114.74 6.01L115.22 5.46C114.72 4.89 113.88 4.37 112.78 4.37C110.42 4.37 108.78 6.20 108.78 9.13C108.78 12.11 110.42 13.94 112.71 13.94ZM127.40 13.94C129.43 13.94 130.87 12.07 130.87 9.11C130.87 6.20 129.43 4.37 127.40 4.37C125.37 4.37 123.93 6.19 123.93 9.11C123.93 12.07 125.37 13.94 127.40 13.94ZM127.40 13.20C125.83 13.20 124.78 11.59 124.78 9.11C124.78 6.65 125.83 5.11 127.40 5.11C128.97 5.11 130.02 6.65 130.02 9.11C130.02 11.59 128.97 13.20 127.40 13.20ZM139.90 13.78L142.09 13.78C144.87 13.78 146.24 11.97 146.24 9.11C146.24 6.27 144.87 4.54 142.04 4.54L139.90 4.54ZM140.71 13.09L140.71 5.22L141.99 5.22C144.33 5.22 145.39 6.75 145.39 9.11C145.39 11.49 144.33 13.09 141.99 13.09ZM155.72 13.78L161.41 13.78L161.41 13.06L156.56 13.06L156.56 9.25L160.52 9.25L160.52 8.53L156.56 8.53L156.56 5.24L161.27 5.24L161.27 4.54L155.72 4.54ZM186.34 13.78L188.93 13.78C191.00 13.78 192.37 12.88 192.37 11.07C192.37 9.80 191.55 9.04 190.19 8.85L190.19 8.79C191.27 8.53 191.81 7.71 191.81 6.78C191.81 5.21 190.61 4.54 188.73 4.54L186.34 4.54ZM187.19 8.57L187.19 5.21L188.58 5.21C190.16 5.21 190.99 5.68 190.99 6.80C190.99 7.94 190.29 8.57 188.51 8.57ZM187.19 13.10L187.19 9.21L188.76 9.21C190.54 9.21 191.55 9.79 191.55 11.06C191.55 12.47 190.50 13.10 188.76 13.10ZM203.98 13.78L204.82 13.78L204.82 10.40L207.96 4.54L207.10 4.54L205.62 7.45C205.25 8.16 204.85 8.90 204.46 9.65L204.40 9.65C203.99 8.90 203.64 8.19 203.27 7.49L201.71 4.54L200.84 4.54L203.98 10.40ZM232.30 13.78L234.49 13.78C237.27 13.78 238.64 11.97 238.64 9.11C238.64 6.27 237.27 4.54 234.44 4.54L232.30 4.54ZM233.11 13.09L233.11 5.22L234.39 5.22C236.73 5.22 237.79 6.75 237.79 9.11C237.79 11.49 236.73 13.09 234.39 13.09ZM248.12 13.78L253.81 13.78L253.81 13.06L248.96 13.06L248.96 9.25L252.92 9.25L252.92 8.53L248.96 8.53L248.96 5.24L253.67 5.24L253.67 4.54L248.12 4.54ZM266.11 13.94C268.03 13.94 269.25 12.84 269.25 11.40C269.25 10.00 268.28 9.45 267.19 8.95L265.83 8.36C265.09 8.02 264.14 7.64 264.14 6.65C264.14 5.70 264.95 5.11 266.17 5.11C267.13 5.11 267.88 5.47 268.46 6.02L268.93 5.47C268.31 4.84 267.33 4.37 266.17 4.37C264.50 4.37 263.28 5.33 263.28 6.71C263.28 8.05 264.40 8.68 265.29 9.04L266.66 9.63C267.62 10.07 268.41 10.37 268.41 11.47C268.41 12.50 267.54 13.20 266.11 13.20C265.02 13.20 264.03 12.71 263.34 11.97L262.82 12.56C263.59 13.38 264.73 13.94 266.11 13.94ZM278.64 13.78L284.16 13.78L284.16 13.06L281.82 13.06L281.82 5.24L284.16 5.24L284.16 4.54L278.64 4.54L278.64 5.24L280.98 5.24L280.98 13.06L278.64 13.06ZM297.29 13.94C298.49 13.94 299.42 13.48 299.99 12.89L299.99 9.14L297.18 9.14L297.18 9.84L299.19 9.84L299.19 12.56C298.79 12.95 298.10 13.20 297.35 13.20C295.40 13.20 294.27 11.61 294.27 9.13C294.27 6.66 295.48 5.11 297.42 5.11C298.35 5.11 298.94 5.50 299.42 6.01L299.89 5.46C299.40 4.94 298.62 4.37 297.42 4.37C295.02 4.37 293.38 6.19 293.38 9.13C293.38 12.11 294.99 13.94 297.29 13.94ZM309.25 13.78L310.03 13.78L310.03 8.36C310.03 7.46 309.95 6.55 309.93 5.64L309.95 5.64L310.93 7.49L314.30 13.78L315.15 13.78L315.15 4.54L314.37 4.54L314.37 9.90C314.37 10.82 314.45 11.77 314.47 12.66L314.45 12.66L310.10 4.54L309.25 4.54ZM339.61 14.42L340.40 14.42L346.39 3.84L345.60 3.84ZM355.01 14.42L355.80 14.42L361.79 3.84L361.00 3.84Z"></path></g></svg>