<?xml version="1.0" standalone="no"?>
<!DOCTYPE svg PUBLIC "-//W3C//DTD SVG 20010904//EN"
 "http://www.w3.org/TR/2001/REC-SVG-20010904/DTD/svg10.dtd">
<svg version="1.0" xmlns="http://www.w3.org/2000/svg"
 width="200.000000pt" height="200.000000pt" viewBox="0 0 200.000000 200.000000"
 preserveAspectRatio="xMidYMid meet">
<metadata>
Created by potrace 1.11, written by Peter Selinger 2001-2013
</metadata>
<g transform="translate(0.000000,200.000000) scale(0.100000,-0.100000)"
fill="#000000" stroke="none">
<path d="M855 1849 c-77 -26 -158 -50 -179 -54 -21 -3 -48 -8 -60 -11 -47 -11
-143 -11 -178 1 -21 7 -38 12 -38 11 0 0 -45 -135 -100 -299 l-99 -298 97
-246 97 -246 302 -304 303 -303 300 300 300 300 60 153 c34 83 65 161 70 172
5 11 23 55 40 98 l30 77 -95 288 c-53 158 -98 293 -100 300 -4 10 -9 10 -27 1
-23 -12 -150 -16 -198 -6 -89 18 -230 58 -275 77 -18 7 -49 18 -95 33 -8 2
-78 -17 -155 -44z"/>
</g>
</svg>
